<?xml version="1.0" encoding="utf-8"?>
<!-- Generator: Adobe Illustrator 23.0.0, SVG Export Plug-In . SVG Version: 6.00 Build 0)  -->
<svg version="1.1" id="图层_1" xmlns="http://www.w3.org/2000/svg" xmlns:xlink="http://www.w3.org/1999/xlink" x="0px" y="0px"
	 viewBox="0 0 567 132.8" style="enable-background:new 0 0 567 132.8;" xml:space="preserve">
<style type="text/css">
	.st0{fill:none;stroke:#000000;stroke-width:2;stroke-miterlimit:10;}
	.st1{fill:#FFFFFF;stroke:#000000;stroke-width:2;stroke-miterlimit:10;}
</style>
<title>Irreel</title>
<path class="st0" d="M5.7,3.1h18C23.8,63,23.9,69.2,24,129"/>
<path class="st1" d="M59.7,3.1c-0.2,59.5,0.2,66.4,0,125.9"/>
<line class="st0" x1="95.6" y1="58.9" x2="59.9" y2="58.9"/>
<path class="st0" d="M95.6,58.9c16.6,0,36.9-9.9,36.9-33.2c0-13-10.2-22.6-23.4-22.6H59.3"/>
<line class="st0" x1="95.6" y1="75.1" x2="132.5" y2="129.1"/>
<polyline class="st0" points="347.7,129.1 275.7,129.1 275.7,3.2 347.7,3.2 "/>
<line class="st0" x1="293.7" y1="58.9" x2="329.7" y2="58.9"/>
<polyline class="st0" points="455.7,129.1 383.7,129.1 383.7,3.2 455.7,3.2 "/>
<line class="st0" x1="401.7" y1="58.9" x2="437.7" y2="58.9"/>
<polyline class="st0" points="491.8,3.2 491.8,129.1 563.9,129.1 "/>
<path class="st1" d="M167.4,3.1c-0.2,59.5,0.2,66.4,0,125.9"/>
<line class="st0" x1="203.2" y1="58.9" x2="167.5" y2="58.9"/>
<path class="st0" d="M203.2,58.9c16.6,0,36.9-9.9,36.9-33.2c0-13-10.2-22.6-23.4-22.6h-49.8"/>
<line class="st0" x1="203.2" y1="75.1" x2="240.1" y2="129.1"/>
</svg>
