<?xml version="1.0" encoding="utf-8"?>
<!-- Generator: Adobe Illustrator 23.0.0, SVG Export Plug-In . SVG Version: 6.00 Build 0)  -->
<svg version="1.1" id="图层_1" xmlns="http://www.w3.org/2000/svg" xmlns:xlink="http://www.w3.org/1999/xlink" x="0px" y="0px"
	 viewBox="0 0 641 189" style="enable-background:new 0 0 641 189;" xml:space="preserve">
<style type="text/css">
	.st0{fill:none;stroke:#000000;stroke-width:3;stroke-miterlimit:10;}
	.st1{fill:#FFFFFF;stroke:#000000;stroke-width:3;stroke-miterlimit:10;}
</style>
<title>Irreel</title>
<path class="st0" d="M48.8,34h18c0.1,59.9,0.2,66.1,0.3,125.9"/>
<path class="st1" d="M102.8,34c-0.2,59.5,0.2,66.4,0,125.9"/>
<line class="st0" x1="138.7" y1="89.8" x2="103" y2="89.8"/>
<path class="st0" d="M138.7,89.8c16.6,0,36.9-9.9,36.9-33.2c0-13-10.2-22.6-23.4-22.6h-49.8"/>
<line class="st0" x1="166" y1="106" x2="175.6" y2="160"/>
<polyline class="st0" points="390.8,160 318.8,160 318.8,34 390.8,34 "/>
<line class="st0" x1="336.3" y1="89.8" x2="381.7" y2="89.8"/>
<polyline class="st0" points="498.8,160 426.8,160 426.8,34 498.8,34 "/>
<line class="st0" x1="444.3" y1="89.8" x2="489.7" y2="89.8"/>
<polyline class="st0" points="534.9,34 534.9,160 607,160 "/>
<path class="st1" d="M210.5,34c-0.2,59.5,0.2,66.4,0,125.9"/>
<line class="st0" x1="246.3" y1="89.8" x2="210.6" y2="89.8"/>
<path class="st0" d="M246.3,89.8c16.6,0,36.9-9.9,36.9-33.2c0-13-10.2-22.6-23.4-22.6H210"/>
<line class="st0" x1="273.4" y1="106" x2="283" y2="160"/>
</svg>
